<?xml version="1.0" encoding="UTF-8"?>
<svg id="mask" xmlns="http://www.w3.org/2000/svg" width="1917" height="1080" viewBox="0 0 1917 1080">
  <defs>
    <style>
      .cls-1 {
        fill: none;
        stroke: #000;
        stroke-miterlimit: 10;
        stroke-width: 8px;
      }
    </style>
  </defs>
  <path class="cls-1" d="M336.5,496.83s33.6,2.3,67.8-2.85l-43.8-16.15s-3.39,68.42,4.81,85.21l24.33-54.73s-23.14,72.52-52.14,61.52c0,0-16-42,38-52,0,0,31-4,34,20s-13.71,38.11-35,41l82.92-98.51s25.57,5.81,39.82,13.66-49.08,5.52-49.08,5.52l-3.65,52.5s25.79-41.62,54.82-18.16c0,0,28.62,35.98-45.84,44.98l89-92c.05-1.15-4.38,55.91,0,73,0,0,3.62-59.15,42.31-60.58s30.69,37.58,30.69,37.58c0,0-.02,24.52-32,23-21-1-21.27-14.65-21.27-14.65l22.27-64.35s19,99-31,100l101.55-92.97,49.54-1.38-62.1,63.35s47.09-47.43,69-13c21,33-34,49-47,37s6-21,6-21c0,0,14-6,23,19l78.69-92.58-7.3,79.54s1.36,20.97,17.99,20.51,49.41-4.58,26.52-40.02-73.02-38.09-73.02-38.09l74.76-1.93-68.64,28.58,69-2,77-33s-4,74-27,76-20.04-86.25,31.69-78.36c48.31,7.36,37.57,86.16-5.69,85.36l66.27-78.93s58.16.1,65.95-1.98-33.16-15.82-33.16-15.82c0,0-18.05,50.73-32.05,57.73,0,0,49-56,41.36,23.36l30.15-37.41s-87.52,27.05-51.52,51.05c0,0,22.04,3.24,51.52,1.62l50.73-97.62s-16.34,23.2-25.79,29.1,25.79-2.58,25.79-2.58c0,0-15.97,30.46-27.61,37.97s17.55-23.73,17.55-23.73l.16,64.45,80.87-104.82s-35.56,10.28-57.89,12.95c0,0-1.33,57.67-13.33,88.67l14.78-72.08,67.22-1.92-36-18s.93,24.9-5.04,34.95-16.35-1.08-16.35-1.08l1.39,64.13-4-62,48.78-2.13-3.22,63.06-47.83-46.42,60.67,1.49-65.9,18.43,60.51-1.43-58,19,59.45-3.1,22.11-88.01,35.42-.35-15.5-7.79v79.38l-16.96-39.13,30.59-.64-32.96,45.7s33.25-13.42,40.05-15.24v-79.71l.7,37.41,3.16-23.16,61.58.66-2.52,21.45-42.25-26.72,3.34,24.32,20.62-27.85v30.25l-49.79-2.4,74.75,2.4-72.13,9.73,72.13.7-63.7,11.54-1.4,21.45-.7-20.39,57.77,1.93-3.89,14.88-64.29-14.88-3.49,14.88,73.89.69-34.95,2.82s-25.06,22.16-45.56,29.67,46.76-28.02,46.76-28.02l.58,37.53,38.97-40.05s-9.06,11.38-20.93,19.72-14.25-17.2-14.25-17.2c0,0,17.6,20.68,39.99,28.61s17.03-72.55,17.03-72.55c0,0,48.36,2.48,72.36-5.52s-42.11-22.25-42.11-22.25c0,0,13.55,43.87,34.33,66.56,0,0-48.22-21.31-57.22,9.69s52,22,52,22l29.07-59.9,92.93-8.1-25.73-30.25-1.33,66.56s-6.35,8.02-25.15-3.14-15.8-62.17-15.8-62.17l2.1,91.12s4.94,6.21,51.92,5.05l43.98-86.16,51.24-2.33-62.24,66.33s45.79-44.14,67-20c29,33-31.32,60.42-45.16,40.71,0,0-8.84-21.71,12.16-18.71s17,20,17,20"/>
</svg>