<?xml version="1.0" encoding="UTF-8"?>
<svg xmlns="http://www.w3.org/2000/svg" width="1917" height="1080" viewBox="0 0 1917 1080">
  <defs>
    <style>
      .cls-1 {
        fill: #fff;
      }

      .cls-2 {
        fill: none;
        stroke: #000;
        stroke-linecap: round;
        stroke-linejoin: round;
        stroke-width: 8px;
      }
    </style>
  </defs>
  <g id="base">
    <path class="cls-1" d="M388.48,523.51c-3.24,17.23-8.85,32.27-16.82,45.12l-4.57-2.81c7.81-12.07,13.2-26.66,16.17-43.77l5.21,1.46ZM412.68,499.84h39.38v4.69h-39.38v74.53h-5.27v-74.53h-38.38v-4.69h38.38v-20.39h5.27v20.39ZM431.31,524.22l4.69-1.82c4.14,16.02,9.61,30.21,16.41,42.6l-5.04,2.87c-6.68-13.36-12.03-27.91-16.05-43.65ZM432.6,474.65l3.87-1.7c2.54,4.38,5.74,11.35,9.61,20.92l-4.22,1.88c-2.93-8.28-6.02-15.31-9.26-21.09ZM446.08,471.19l3.81-1.58c3.4,5.66,6.48,12.42,9.26,20.27l-3.98,1.93c-3.01-8.48-6.04-15.35-9.08-20.62Z"/>
    <path class="cls-1" d="M499.14,515.08c16.68,4.88,32.17,11.29,46.46,19.22l-2.75,5.04c-13.95-8.32-28.52-14.73-43.71-19.22v58.71h-5.39v-99.38h5.39v35.62Z"/>
    <path class="cls-1" d="M593.34,484.37c0,23.98-.35,40.45-1.05,49.39-.55,7.23-1.64,13.52-3.28,18.87-3.13,10.23-8.83,18.44-17.11,24.61l-3.87-3.57c8.01-5.55,13.36-13.2,16.05-22.97,1.56-5.7,2.6-12.89,3.11-21.56.51-9.14.76-24.06.76-44.77h5.39ZM618.89,569.34c7.85-5.39,14.53-11.62,20.04-18.69,5.19-6.68,10.08-15.02,14.65-25.02l3.52,4.57c-5.7,11.88-11.68,21.29-17.93,28.24-5.43,6.06-12.91,12.36-22.44,18.93l-3.11-1.46v-92.52h5.27v85.96Z"/>
    <path class="cls-1" d="M707.63,504.18c4.92-.31,9.53-.47,13.83-.47,4.57,0,7.89,1.86,9.96,5.57,1.99,3.48,2.99,8.81,2.99,16,0,18.71-1.37,32.64-4.1,41.78-1.13,3.79-2.89,6.45-5.27,7.97-2.03,1.25-4.71,1.88-8.03,1.88-2.34,0-5.96-.33-10.84-1l-.82-5.39c4.8.98,8.46,1.46,10.96,1.46,2.77,0,4.84-.61,6.21-1.82,1.21-1.05,2.21-2.85,2.99-5.39,2.58-8.2,3.87-21.33,3.87-39.38,0-7.19-.78-12.03-2.34-14.53-1.17-1.91-3.07-2.87-5.68-2.87-4.42,0-9.34.18-14.77.53-5.74,24.1-13.26,46.52-22.56,67.27l-4.92-1.88c9.61-20.66,17.05-42.34,22.32-65.04-8.71.59-16.52,1.21-23.44,1.88l-.47-4.63c10.47-.82,18.75-1.39,24.84-1.7,1.68-7.42,3.16-15.47,4.45-24.14l5.51,1.23c-1.33,6.88-2.89,14.43-4.69,22.68ZM740.85,493.87l4.45-1.93c8.12,13.48,13.96,27.36,17.52,41.66l-4.92,1.99c-3.71-15.27-9.4-29.18-17.05-41.72Z"/>
    <path class="cls-1" d="M798.49,499.96c-1.56,12.46-2.93,25.98-4.1,40.55l-.47,6.04,2.75-4.34c8.32-11.37,19-17.05,32.05-17.05,8.2,0,14.63,2.42,19.28,7.27,4.02,4.18,6.04,9.61,6.04,16.29,0,11.25-5.16,19.24-15.47,23.96-8.2,3.71-20.04,5.92-35.51,6.62l-1.82-4.8c15.16-.47,26.68-2.56,34.57-6.27,4.8-2.23,8.18-5.02,10.14-8.38,1.72-3.01,2.58-6.89,2.58-11.66,0-5.74-1.99-10.31-5.98-13.71-3.67-3.08-8.44-4.63-14.3-4.63-11.52,0-21.29,5.45-29.3,16.35-1.95,2.66-3.32,4.8-4.1,6.45l-5.74-1.05c.66-15.04,2.03-32.48,4.1-52.32l5.27.7ZM804.35,483.26l2.05-4.28c12.27,2.7,24.14,6.21,35.62,10.55l-2.52,4.45c-9.77-3.87-21.48-7.44-35.16-10.72Z"/>
    <path class="cls-1" d="M899.3,523.51c-3.24,17.23-8.85,32.27-16.82,45.12l-4.57-2.81c7.81-12.07,13.2-26.66,16.17-43.77l5.21,1.46ZM923.5,499.84h39.37v4.69h-39.37v74.53h-5.27v-74.53h-38.38v-4.69h38.38v-20.39h5.27v20.39ZM942.14,524.22l4.69-1.82c4.14,16.02,9.61,30.21,16.41,42.6l-5.04,2.87c-6.68-13.36-12.03-27.91-16.05-43.65ZM943.42,474.65l3.87-1.7c2.54,4.38,5.74,11.35,9.61,20.92l-4.22,1.88c-2.93-8.28-6.02-15.31-9.26-21.09ZM956.9,471.19l3.81-1.58c3.4,5.66,6.48,12.42,9.26,20.27l-3.98,1.93c-3.01-8.48-6.04-15.35-9.08-20.62Z"/>
    <path class="cls-1" d="M1009.96,515.08c16.68,4.88,32.17,11.29,46.46,19.22l-2.75,5.04c-13.95-8.32-28.52-14.73-43.71-19.22v58.71h-5.39v-99.38h5.39v35.62Z"/>
    <path class="cls-1" d="M1104.16,484.37c0,23.98-.35,40.45-1.05,49.39-.55,7.23-1.64,13.52-3.28,18.87-3.13,10.23-8.83,18.44-17.11,24.61l-3.87-3.57c8.01-5.55,13.36-13.2,16.05-22.97,1.56-5.7,2.6-12.89,3.11-21.56.51-9.14.76-24.06.76-44.77h5.39ZM1129.71,569.34c7.85-5.39,14.53-11.62,20.04-18.69,5.19-6.68,10.08-15.02,14.65-25.02l3.52,4.57c-5.7,11.88-11.68,21.29-17.93,28.24-5.43,6.06-12.91,12.36-22.44,18.93l-3.11-1.46v-92.52h5.27v85.96Z"/>
    <path class="cls-1" d="M1221.91,494.57c12.23-.39,23.44-1.11,33.63-2.17l.12,4.57c-14.38,1.09-26.27,1.78-35.68,2.05-3.52,7.38-7.27,13.73-11.25,19.04l-4.34,5.04.35.53c3.52-3.05,6.62-5.14,9.32-6.27,2.38-.98,5.04-1.46,7.97-1.46,7.93,0,12.34,5.06,13.24,15.18,3.48-1.56,8.03-3.48,13.65-5.74,6.76-2.77,10.76-4.43,12.01-4.98l2.17,4.8c-9.61,3.44-18.81,7.13-27.6,11.07v23.96h-5.04v-21.68c-9.45,4.26-16.08,8.46-19.86,12.6-2.85,3.13-4.28,6.48-4.28,10.08,0,4.42,1.8,7.6,5.39,9.55,3.36,1.88,8.48,2.81,15.35,2.81,9.45,0,20.33-.49,32.64-1.46l.23,5.16c-10.08.7-20.39,1.05-30.94,1.05s-18.13-1.64-22.38-4.92c-3.4-2.66-5.1-6.64-5.1-11.95s2.19-10.02,6.56-14.36c4.65-4.57,12.07-9.16,22.27-13.77-.31-5.47-1.35-9.16-3.11-11.07-1.37-1.48-3.5-2.23-6.39-2.23-7.81,0-17.09,6.72-27.83,20.16l-4.22-3.57c11.6-12.58,20.19-25.06,25.78-37.44-9.22.27-17.13.31-23.73.12v-4.69c9.1.39,17.66.47,25.66.23,2.46-5.98,4.3-11.5,5.51-16.58l5.57,1c-1.21,3.95-3.11,9.06-5.68,15.35Z"/>
    <path class="cls-1" d="M1291.2,509.45l-1.46-5.39c23.48-5.7,38.96-8.55,46.46-8.55,9.8,0,17.36,3.59,22.68,10.78,4.53,6.17,6.8,14.3,6.8,24.38,0,7.42-1.66,14.1-4.98,20.04-2.89,5.04-6.7,9-11.43,11.89-8.91,5.47-21.07,8.99-36.5,10.55l-2.05-4.8c15.55-1.37,27.44-4.8,35.68-10.31,9.18-6.13,13.77-15.25,13.77-27.36,0-10.31-2.5-18.16-7.5-23.55-4.18-4.53-9.71-6.8-16.58-6.8-8.52,0-23.48,3.05-44.88,9.14Z"/>
    <path class="cls-1" d="M1436.61,481.15l4.34,3.34c-13.48,15.94-26,29.3-37.56,40.08-1.52,1.52-2.29,2.89-2.29,4.1,0,1.6.92,3.18,2.75,4.75,12.58,10.59,26.66,24.36,42.25,41.31l-4.22,3.69c-13.4-15.62-27.44-29.73-42.13-42.3-2.38-2.03-3.57-4.36-3.57-6.97,0-2.77,1-5.1,2.99-6.97,13.32-12.69,25.8-26.37,37.44-41.02Z"/>
    <path class="cls-1" d="M1483.63,486.19c16.17-.16,32.13-.76,47.87-1.82l3.52,4.34-38.09,37.32-6.09,5.62.35.47,6.62-4.57c5.47-3.12,12.27-4.69,20.39-4.69,9.41,0,16.72,2.66,21.91,7.97,4.41,4.57,6.62,10.49,6.62,17.75,0,10.59-3.55,18.57-10.66,23.96-6.41,4.8-15.33,7.21-26.78,7.21-14.61,0-21.91-5.08-21.91-15.23,0-4.18,1.56-7.54,4.69-10.08,2.85-2.34,6.52-3.52,11.02-3.52,5.7,0,10.37,2.09,14,6.27,3.28,3.83,5.45,9.1,6.5,15.82,6.52-2.07,11.17-5.19,13.95-9.38,2.54-3.83,3.81-8.85,3.81-15.06,0-6.72-2.48-12.11-7.44-16.17-4.3-3.48-9.61-5.21-15.94-5.21-6.68,0-12.54,1.08-17.58,3.22-4.3,1.84-8.63,4.69-13.01,8.55-2.97,2.66-6.17,6.06-9.61,10.2l-4.45-4.22c17.81-18.87,35.86-37.54,54.14-56.02-11.95,1.02-26.52,1.78-43.71,2.29l-.12-5.04ZM1518.79,574.49c-.9-6.52-2.91-11.5-6.04-14.94-2.66-2.93-5.88-4.39-9.67-4.39s-6.45,1-8.44,2.99c-1.76,1.76-2.64,4.08-2.64,6.97,0,6.8,5.45,10.2,16.35,10.2,3.32,0,6.8-.27,10.43-.82Z"/>
  </g>
  <g id="mask">
    <path class="cls-2" d="M369.03,501.42h83.03l-42.52-21.96,1.01,99.61-25.04-55.23s-6,33-16,43l64.19-43.54s9.75,31.94,15.81,42.54l-15.56-91.77s9.67,16.75,11.11,20.26c1.45,3.51,2.69-23.82,2.69-23.82l9.57,20.27,39.35-11.32v99.38l1.84-62.99s42,18,45.82,20.81l46.52-52.27s5.65,82.46-19.35,89.46l44.65-90.46.56,93.98s31.13-27.78,38.78-50.53l22.22-18.68s47.78-5.32,50.78.68,7.97,35.57-3,63c0,0-6.42,5.18-19.71,1.59-13.29-3.59,3.47-92.6,3.47-92.6-.46-.08-7.76,52.01-27.46,94.12-9.12,19.49,60.77-81.82,60.77-81.82,0,0,15.93,24.71,17.93,41.71l45.28-54.56s31.05,9.76,34.88,11.66c3.84,1.9-44.51,7.32-44.51,7.32l-4.91,52.72s16.02-23.64,29.64-23.39c13.62.25,24.89-1.73,30.25,16.76s-14.34,29.61-48.99,31.55l77.7-74.82,83.58-.44-42.07-23.78v104.07l-24.86-62.09s-.3,22.6-16.65,48.8,63.57-46.23,63.57-46.23c0,0,7.53,28.03,19.8,46.23s-19.8-98.13-19.8-98.13c0,0,12.08,23.33,13.08,26.33s.4-29.31.4-29.31c0,0,7.6,13.31,12.6,25.31s38-15,38-15v104.09l2-65.09s40.86,13.73,46.93,20.36,44.07-53.36,44.07-53.36c0,0,8.05,84.59-22,92l47.98-95.12v94.01s31.86-21.04,39.94-46.46c8.08-25.43,24.43-31.36,24.43-31.36l66.25-1.16-31.15-17.52s-16.21,41.03-34.83,60.32c-18.62,19.29,25.32-35,38.38-16.71,5,7,3.75,38.36,3.75,38.36l28.57-37.88s-64,23.52-58.32,41.52c6,19,56.33,11.02,56.33,11.02l31.67-67.02s64-29,70,14c4.61,33.06-13,44-49.79,48.83l128.67-89.51-44.19,49.79,49.92,46.84,37.59-89.32,50.09-1.29-58.59,59.55s42.34-44.15,66.32-8.89c0,0,16.81,39.46-36.1,39.07,0,0-28.9-3.07-8.9-23.07,0,0,8.84-4.36,14.42,1.32s10.58,8.68,11.58,25.68"/>
  </g>
</svg>