<?xml version="1.0" encoding="UTF-8"?>
<svg id="mask" xmlns="http://www.w3.org/2000/svg" width="1917" height="1080" viewBox="0 0 1917 1080">
  <defs>
    <style>
      .cls-1 {
        fill: none;
        stroke: #000;
        stroke-linecap: round;
        stroke-linejoin: round;
        stroke-width: 8px;
      }
    </style>
  </defs>
  <path class="cls-1" d="M559.94,480.58s5.56,87.25-13.44,101.25l15.43-99.18,24.57.18v94.06l-15,1.94-12.79-68.04,25.61-.65-22.5,29.9,22.5-2.19,17.22-53.59,44.96-.42s0,21-6,24-17,2-17,2l-21-23v99l2.75-62.73,38.62,1.23s-10.82,44.93-37.09,57.71,7.42-57.71,7.42-57.71c0,0-2.65,27.04,42.33,58.77s20.07-74.47,20.07-74.47c0,0,42.91-3.8,48.91-1.8s6,9,6,12,3,53-10,55-19-2-19-2l7-93s-10,72-31,98l63.76-84.9s16.2,29.65,18.24,43.9l43.85-55.27s26.48,5.47,36.32,11.37-45.49,7.59-45.49,7.59l-3.25,52.58s26.58-43.26,55.58-16.26c0,0,23,40-47,41l90.35-95.21s5.65,82.21-15.35,100.21l17.12-100.21h23.82l-.8,96.68h-15.5l-11.22-69.67,31.57,1.2-28.35,28.38,28.35,1.06,12.24-55.02h43.64l-2.6,24.38-22.27,1.2-19.05-30.85v110.04l2.62-64.69h39.56s-13.9,46.24-35.01,56.37,3.88-54.26,3.88-54.26c0,0,17.94,46.66,42,54.39l24.76-84.39s54.21-.31,64.73-2.46-31.41-15-31.41-15c0,0-2.07,24.85-34.07,59.85,0,0,41.59-42.28,42.8-7.53s-1.29,28.89-1.29,28.89l30.49-37.36s-85,28-50.44,50.31c0,0,8.89,6.69,48.16,1.69l30.53-68.5s64.74-23.5,70.74,10.5-5,47-50,54l128.01-87.75-42.69,46.18,49.67,49.04,36-89.47,51.13-2.33-58.91,61.89s34.49-38.83,64.28-16.06c0,0,19,33-13.05,42.98-39.84,12.4-34.95-15.98-34.95-15.98,0,0,22.96-19.17,30,12"/>
</svg>