<?xml version="1.0" encoding="UTF-8"?>
<svg id="base" xmlns="http://www.w3.org/2000/svg" width="1917" height="1080" viewBox="0 0 1917 1080">
  <defs>
    <style>
      .cls-1 {
        fill: #fff;
      }
    </style>
  </defs>
  <path class="cls-1" d="M357.43,499.84c-8.13.27-15.08.31-20.86.12v-4.69c8.2.27,15.23.31,21.09.12.27-5.12.64-10.59,1.11-16.41l5.27.23c-.82,9.84-1.27,15.16-1.35,15.94,11.68-.35,24.96-1.35,39.84-2.99v4.57c-14.41,1.52-27.77,2.52-40.08,2.99-.47,6.6-.7,13.24-.7,19.92,6.68-2.03,14.24-2.99,22.68-2.87.59-1.95,1.19-4.59,1.82-7.91l5.04.94c-.82,3.2-1.5,5.68-2.05,7.44,7.5,1.09,13.44,4.45,17.81,10.08,3.87,5.04,5.8,11.07,5.8,18.11,0,9.84-3.16,17.58-9.49,23.2-5.59,5-13.85,8.59-24.79,10.78l-2.4-4.45c11.68-1.95,20.06-5.62,25.14-11.02,4.34-4.61,6.5-10.74,6.5-18.4,0-7.15-2.17-13.05-6.5-17.7-3.59-3.83-8.03-6.07-13.3-6.74-4.61,14.34-11.07,27.01-19.39,38.03-3.32,4.34-7.03,7.81-11.13,10.43-4.26,2.73-8.4,4.1-12.42,4.1s-7.32-1.58-9.79-4.75c-2.19-2.81-3.28-6.41-3.28-10.78,0-8.55,2.62-16.29,7.85-23.2,4.37-5.74,10.08-10.23,17.11-13.48,0-8.01.16-15.21.47-21.62ZM361.88,560.08c-2.73-10.9-4.34-22.25-4.8-34.04-6.76,3.63-11.91,8.4-15.47,14.3-3.28,5.43-4.92,11.37-4.92,17.81,0,3.63.96,6.43,2.87,8.38,1.48,1.56,3.32,2.34,5.51,2.34,5.66,0,11.27-2.93,16.82-8.79ZM365.69,555.51c7.58-10.16,13.42-21.76,17.52-34.8-7.97,0-15.08,1.09-21.33,3.28.47,11.88,1.74,22.38,3.81,31.52Z"/>
  <path class="cls-1" d="M451.56,499.96c-1.56,12.46-2.93,25.98-4.1,40.55l-.47,6.04,2.75-4.34c8.32-11.37,19-17.05,32.05-17.05,8.2,0,14.63,2.42,19.28,7.27,4.02,4.18,6.04,9.61,6.04,16.29,0,11.25-5.16,19.24-15.47,23.96-8.2,3.71-20.04,5.92-35.51,6.62l-1.82-4.8c15.16-.47,26.68-2.56,34.57-6.27,4.8-2.23,8.18-5.02,10.14-8.38,1.72-3.01,2.58-6.89,2.58-11.66,0-5.74-1.99-10.31-5.98-13.71-3.67-3.09-8.44-4.63-14.3-4.63-11.52,0-21.29,5.45-29.3,16.35-1.95,2.66-3.32,4.8-4.1,6.45l-5.74-1.05c.66-15.04,2.03-32.48,4.1-52.32l5.27.7ZM457.42,483.26l2.05-4.28c12.27,2.7,24.14,6.21,35.62,10.55l-2.52,4.45c-9.77-3.87-21.48-7.44-35.16-10.72Z"/>
  <path class="cls-1" d="M584.49,563.42c-2.34,4.57-5.68,8.3-10.02,11.19-3.48,2.34-8.01,4.41-13.59,6.21l-3.4-3.81c5.94-1.99,10.55-4.06,13.83-6.21,3.24-2.19,5.84-4.84,7.79-7.97-4.53-.94-8.3-2.87-11.31-5.8-2.66-2.54-5.04-6.11-7.15-10.72l3.57-2.52c2.3,4.77,4.9,8.28,7.79,10.55,2.5,2.03,5.59,3.34,9.26,3.93,2.54-6.56,3.81-16.95,3.81-31.17,0-10.43-.2-18.98-.59-25.66-9.73,1.17-18.24,6.29-25.55,15.35-6.25,7.85-10.68,17.62-13.3,29.3-1.37,5.86-2.05,10.57-2.05,14.12h-5.16c-1.13-6.21-1.7-13.24-1.7-21.09,0-13.95.96-30.51,2.87-49.69l5.39.35c-2.54,17.58-3.81,34.45-3.81,50.62l-.35,6.86h.82c2.54-13.4,7.27-24.63,14.18-33.69,7.58-9.8,17.05-15.29,28.42-16.46-.39-6.29-.92-12.25-1.58-17.87l5.45-.23c.62,6.56,1.09,12.52,1.41,17.87,9.53.12,16.82,3.44,21.86,9.96,4.57,5.82,6.86,13.69,6.86,23.61,0,11.02-3.2,19.51-9.61,25.49-5.43,5.12-12.48,7.68-21.15,7.68-1.37,0-2.36-.06-2.99-.18ZM586.54,558.79h.82c8.4,0,14.88-2.81,19.45-8.44,4.06-5,6.09-11.68,6.09-20.04,0-9.96-2.44-17.52-7.32-22.68-4.02-4.18-9.3-6.33-15.82-6.45.39,8.63.59,17.23.59,25.78,0,13.75-1.27,24.36-3.81,31.82Z"/>
  <path class="cls-1" d="M655.01,486.19c16.17-.16,32.13-.76,47.87-1.82l3.52,4.34-38.09,37.32-6.09,5.62.35.47,6.62-4.57c5.47-3.12,12.27-4.69,20.39-4.69,9.41,0,16.72,2.66,21.91,7.97,4.41,4.57,6.62,10.49,6.62,17.75,0,10.59-3.56,18.57-10.66,23.96-6.41,4.8-15.33,7.21-26.78,7.21-14.61,0-21.91-5.08-21.91-15.23,0-4.18,1.56-7.54,4.69-10.08,2.85-2.34,6.52-3.52,11.02-3.52,5.7,0,10.37,2.09,14,6.27,3.28,3.83,5.45,9.1,6.5,15.82,6.52-2.07,11.17-5.19,13.95-9.38,2.54-3.83,3.81-8.85,3.81-15.06,0-6.72-2.48-12.11-7.44-16.17-4.3-3.48-9.61-5.21-15.94-5.21-6.68,0-12.54,1.07-17.58,3.22-4.3,1.84-8.63,4.69-13.01,8.55-2.97,2.66-6.17,6.05-9.61,10.2l-4.45-4.22c17.81-18.87,35.86-37.54,54.14-56.02-11.95,1.02-26.52,1.78-43.71,2.29l-.12-5.04ZM690.17,574.49c-.9-6.52-2.91-11.5-6.04-14.94-2.66-2.93-5.88-4.39-9.67-4.39s-6.45,1-8.44,2.99c-1.76,1.76-2.64,4.08-2.64,6.97,0,6.8,5.45,10.2,16.35,10.2,3.32,0,6.8-.27,10.43-.82Z"/>
  <path class="cls-1" d="M768.13,498.55c.16-2.19.43-5.51.82-9.96.39-4.26.68-7.42.88-9.49l5.51.35c-.27,2.62-.64,6.13-1.11,10.55-.39,4.06-.67,6.91-.82,8.55,12.5-.16,23.65-.57,33.46-1.23l.12,4.69c-10.9.59-22.25.94-34.04,1.05l-2.17,22.56c14.3-.27,25.94-.74,34.92-1.41v4.57c-11.37.82-23.12,1.29-35.27,1.41-1.45,14.8-2.17,24.34-2.17,28.59,0,6.56,1.7,11.09,5.1,13.59,2.97,2.11,7.71,3.16,14.24,3.16,9.53,0,16.56-1.84,21.09-5.51,3.75-3.01,5.62-7.17,5.62-12.48,0-5.94-2.4-11.66-7.21-17.17l5.04-1.64c5.04,5.94,7.56,12.09,7.56,18.46,0,15.43-10.7,23.14-32.11,23.14-9.38,0-15.92-1.95-19.63-5.86-3.24-3.36-4.86-8.67-4.86-15.94,0-4.38.64-13.83,1.93-28.36h-1.82c-7.03,0-12.75-.04-17.17-.12v-4.8c6.6.23,12.32.35,17.17.35h2.29l2.17-22.56c-9.22,0-16.23-.08-21.04-.23v-4.8c6.52.35,13.69.53,21.5.53Z"/>
  <path class="cls-1" d="M889.93,494.69c-1.68,28.32-5.72,49.39-12.13,63.22-2.38,5.2-4.83,8.71-7.32,10.55-2.11,1.6-4.79,2.4-8.03,2.4-5.27,0-9.43-2.91-12.48-8.73-2.89-5.55-4.34-13.07-4.34-22.56,0-7.58,1.39-14.88,4.16-21.91,2.38-5.98,5.43-10.92,9.14-14.82,7.93-8.32,18.14-12.48,30.64-12.48,24.53,0,36.8,14.57,36.8,43.71,0,23.55-12.03,38.11-36.09,43.65l-2.64-4.16c22.3-5.12,33.46-18.57,33.46-40.37,0-14.69-3.26-25.12-9.79-31.29-5-4.73-12.13-7.13-21.39-7.21ZM884.77,494.92c-8.99,1.02-16.23,4.53-21.74,10.55-8.32,9.1-12.48,20.55-12.48,34.34,0,8.98,1.39,15.84,4.16,20.57,2.15,3.63,4.77,5.45,7.85,5.45,2.5,0,4.53-.88,6.09-2.64,1.44-1.6,3.08-4.51,4.92-8.73,5.94-13.67,9.67-33.52,11.19-59.53Z"/>
  <path class="cls-1" d="M984.83,494.57c12.23-.39,23.44-1.11,33.63-2.17l.12,4.57c-14.38,1.09-26.27,1.78-35.68,2.05-3.52,7.38-7.27,13.73-11.25,19.04l-4.34,5.04.35.53c3.52-3.05,6.62-5.14,9.32-6.27,2.38-.98,5.04-1.46,7.97-1.46,7.93,0,12.34,5.06,13.24,15.18,3.48-1.56,8.03-3.48,13.65-5.74,6.76-2.77,10.76-4.43,12.01-4.98l2.17,4.8c-9.61,3.44-18.81,7.13-27.6,11.07v23.96h-5.04v-21.68c-9.45,4.26-16.08,8.46-19.86,12.6-2.85,3.12-4.28,6.48-4.28,10.08,0,4.42,1.8,7.6,5.39,9.55,3.36,1.88,8.48,2.81,15.35,2.81,9.45,0,20.33-.49,32.64-1.46l.23,5.16c-10.08.7-20.39,1.05-30.94,1.05s-18.13-1.64-22.38-4.92c-3.4-2.66-5.1-6.64-5.1-11.95s2.19-10.02,6.56-14.36c4.65-4.57,12.07-9.16,22.27-13.77-.31-5.47-1.35-9.16-3.11-11.07-1.37-1.48-3.5-2.23-6.39-2.23-7.81,0-17.09,6.72-27.83,20.16l-4.22-3.57c11.6-12.58,20.19-25.06,25.78-37.44-9.22.27-17.13.31-23.73.12v-4.69c9.1.39,17.66.47,25.66.23,2.46-5.98,4.3-11.5,5.51-16.58l5.57,1c-1.21,3.95-3.11,9.06-5.68,15.35Z"/>
  <path class="cls-1" d="M1046.85,541.27c10.9-9.26,19.28-20.02,25.14-32.29.94-1.99,1.54-3.89,1.82-5.68,1.29.47,2.7,1.11,4.22,1.93.62.39.94.8.94,1.23,0,.47-.27.86-.82,1.17-.74.47-1.58,1.5-2.52,3.11-2.31,4.06-4.67,7.91-7.09,11.54v43.83l.23,16.05c0,.47-.23.7-.7.7h-2.75c-.47,0-.7-.23-.7-.7l.23-16.05v-24.38c0-1.17.12-6.09.35-14.77-4.3,5.66-8.89,10.78-13.77,15.35-.55.47-.92.7-1.11.7s-.59-.23-1.17-.7c-.74-.59-1.5-.94-2.29-1.05ZM1048.79,505.59c9.06-6.33,16.66-14.24,22.79-23.73,1.21-1.88,1.97-3.63,2.29-5.27,1.52.55,2.97,1.23,4.34,2.05.55.31.82.7.82,1.17,0,.43-.31.84-.94,1.23-1.09.63-2.01,1.46-2.75,2.52-5.66,8.4-13.03,16.27-22.09,23.61-.55.39-.9.59-1.05.59-.2,0-.61-.27-1.23-.82-.82-.66-1.54-1.11-2.17-1.35ZM1091.21,493.22v11.78h28.59c.16-.82.61-3.79,1.35-8.91.23-2.27.35-3.91.35-4.92,0-.7-.04-1.33-.12-1.88,2.11.27,3.5.55,4.16.82.9.31,1.35.72,1.35,1.23,0,.23-.31.74-.94,1.52-.39.55-.72,1.8-1,3.75-.39,2.73-.86,5.53-1.41,8.38h15.82l16.76-.23c.51,0,.76.23.76.7v2.52c0,.47-.25.7-.76.7l-16.76-.23h-16.46c-1.29,6.99-2.17,11.48-2.64,13.48h12.77l14.24-.23c.47,0,.7.23.7.7l-.23,16.99v16.11l.23,26.07c0,.47-.23.7-.7.7h-2.52c-.47,0-.7-.23-.7-.7v-5.51h-39.73v6.21c0,.51-.23.76-.7.76h-2.52c-.47,0-.7-.25-.7-.76l.23-26.43v-14.65l-.23-18.81c0-.47.23-.7.7-.7l14.24.23h1.35c.86-3.79,1.7-8.28,2.52-13.48h-28.01v5.8c0,13.79-1.15,25.25-3.46,34.39-2.77,11.02-6.52,20.31-11.25,27.89-.47.7-.8,1.05-1,1.05-.16,0-.51-.2-1.05-.59-.82-.59-1.7-.94-2.64-1.05,5.35-6.91,9.43-16.29,12.25-28.12,2.3-9.77,3.46-20.84,3.46-33.22v-14.06c0-6.05-.27-10.37-.82-12.95,2.3.7,4.08,1.39,5.33,2.05,18.91-2.3,33.89-5.47,44.94-9.49,2.07-.7,4.2-1.89,6.39-3.57,1.41.94,2.56,1.86,3.46,2.75.39.39.59.78.59,1.17,0,.51-.43.84-1.29,1-.82.04-2.83.59-6.04,1.64-12.58,4.22-28.87,7.58-48.87,10.08ZM1104.33,525.27v13.07h39.73v-13.07h-39.73ZM1104.33,541.68v13.24h39.73v-13.24h-39.73ZM1104.33,558.26v14.47h39.73v-14.47h-39.73Z"/>
  <path class="cls-1" d="M1198.35,519.18h-1.17v32.75c4.26-1.64,9.18-3.77,14.77-6.39-.16.98-.23,1.7-.23,2.17,0,.86-.06,1.39-.18,1.58s-.55.43-1.29.7c-7.19,3.2-14.88,6.21-23.09,9.02-2.77.9-4.42,1.62-4.92,2.17-.51.47-.96.7-1.35.7-.27,0-.62-.31-1.05-.94-.43-.74-1.04-1.95-1.82-3.63,3.2-.59,7.21-1.58,12.01-2.99,1.09-.27,2.25-.62,3.46-1.05v-34.1h-2.87l-9.49.23c-.47,0-.7-.23-.7-.7v-2.52c0-.51.23-.76.7-.76l9.49.29h2.87v-28.36h-3.57l-10.49.23c-.47,0-.7-.23-.7-.7v-2.52c0-.47.23-.7.7-.7l10.49.23h9.43l10.43-.23c.47,0,.7.23.7.7v2.52c0,.47-.23.7-.7.7l-10.43-.23h-2.17v28.36h1.17l9.49-.29c.51,0,.76.25.76.76v2.52c0,.47-.25.7-.76.7l-9.49-.23ZM1243.88,582.87c0-.08.04-1.54.12-4.39.27-8.52.45-18.65.53-30.41-4.77,5.78-11.19,11.35-19.28,16.7-6.91,4.57-14.18,8.4-21.8,11.48-.62.23-1.02.35-1.17.35-.27,0-.64-.35-1.11-1.05-.47-.74-1.19-1.37-2.17-1.88,19.26-7.46,33.55-16.52,42.89-27.19h-5.92l-15.76.23c-.47,0-.7-.23-.7-.7l.29-7.32v-5.04l-.29-7.32c0-.47.23-.7.7-.7l15.76.23h23.55l15.76-.23c.47,0,.7.23.7.7l-.29,7.32v5.04l.29,7.32c0,.47-.23.7-.7.7l-15.76-.23h-9.49c3.71,5.2,8.59,10.04,14.65,14.53,4.92-3.28,9.32-6.88,13.18-10.78,1.17-1.17,1.97-2.25,2.4-3.22.98.7,1.93,1.54,2.87,2.52.35.31.53.64.53,1v.18c-.08.16-.45.39-1.11.7-.67.27-1.58.88-2.75,1.82-4.34,3.71-8.5,6.91-12.48,9.61,6.56,4.49,14.16,8.14,22.79,10.96-.94.59-1.66,1.29-2.17,2.11-.43.78-.78,1.17-1.05,1.17-.2,0-.61-.14-1.23-.41-17.31-7.38-29.94-16.99-37.91-28.83.04,10.55.16,19.61.35,27.19.04,1.72.1,3.71.18,5.98.04,1.05.06,1.68.06,1.88,0,.51-.23.76-.7.76h-2.99c-.51,0-.76-.25-.76-.76ZM1267.55,516.6h-37.32l-17.05.23c-.47,0-.7-.23-.7-.7v-2.4c0-.47.23-.7.7-.7l17.05.23h37.32l17.05-.23c.47,0,.7.23.7.7v2.4c0,.47-.23.7-.7.7l-17.05-.23ZM1263.57,504.12h-30.29l-16.88.23c-.47,0-.7-.23-.7-.7l.29-7.91v-5.98l-.29-7.91c0-.47.23-.7.7-.7l16.88.23h30.29l16.88-.23c.47,0,.7.23.7.7l-.29,7.91v5.98l.29,7.91c0,.47-.23.7-.7.7l-16.88-.23ZM1219.56,484.73v16.17h16.82v-16.17h-16.82ZM1272.01,543.14v-13.95h-48.52v13.95h48.52ZM1257.01,484.73h-17.29v16.17h17.29v-16.17ZM1277.28,500.9v-16.17h-16.93v16.17h16.93Z"/>
  <path class="cls-1" d="M1345.11,505.82c-10.08,1.09-21.41,1.78-33.98,2.05l-.35-4.57c11.29-.23,22.17-.82,32.64-1.76-2.31-5.62-4.79-12.79-7.44-21.5l5.39-.7c2.46,8.52,4.86,15.7,7.21,21.56,9.92-1.17,18.44-2.6,25.55-4.28l.64,4.45c-8.55,1.84-16.68,3.18-24.38,4.04,5.31,12.38,13.26,24.55,23.85,36.5l-3.69,5.27c-6.33-3.28-11.68-5.49-16.05-6.62-3.83-.94-8.24-1.41-13.24-1.41-8.09,0-14.39,1.84-18.93,5.51-3.79,3.05-5.68,6.88-5.68,11.48,0,11.95,10.76,17.93,32.29,17.93,5.39,0,10.43-.41,15.12-1.23l.12,4.92c-5.51.62-10.63.94-15.35.94-24.81,0-37.21-7.38-37.21-22.15,0-7.03,2.97-12.48,8.91-16.35,5.23-3.44,12.19-5.16,20.86-5.16,5.04,0,9.71.51,14,1.52,3.16.74,7.01,1.99,11.54,3.75-9.41-11.05-16.68-22.46-21.8-34.22Z"/>
  <path class="cls-1" d="M1460.87,511.85c-11.6.31-24,1-37.21,2.05-.31,14.69-.47,24.4-.47,29.12,0,10.16.47,16.95,1.41,20.39.94,3.28,3.18,5.57,6.74,6.86,3.44,1.21,8.71,1.82,15.82,1.82,7.85,0,16.97-.53,27.36-1.58v5.39c-10.86.66-19.9,1-27.13,1-9.65,0-16.6-1.13-20.86-3.4-3.44-1.88-5.68-4.78-6.74-8.73-1.02-3.87-1.52-11.15-1.52-21.86,0-4.53.08-14.08.23-28.65-3.63.27-10.08.82-19.34,1.64v-4.86c4.49-.35,10.98-.84,19.45-1.46.16-11.87.31-20.64.47-26.31h5.16c-.08,7.15-.27,15.84-.59,26.07,16.33-.94,28.73-1.58,37.21-1.93.08-6.25.12-15.64.12-28.18h5.16c0,8.71-.08,18.03-.23,27.95,7.85-.31,14.08-.51,18.69-.59v4.8c-6.45,0-12.71.12-18.81.35-.23,11.84-.72,20.51-1.46,26.02-.51,3.95-1.66,6.7-3.46,8.26-1.49,1.29-3.69,1.93-6.62,1.93-4.96,0-10-1-15.12-2.99v-5.27c4.69,2.15,9.45,3.22,14.3,3.22,2.03,0,3.46-.45,4.28-1.35.78-.9,1.31-2.44,1.58-4.63.7-5.43,1.23-13.79,1.58-25.08Z"/>
  <path class="cls-1" d="M1520.96,486.19c16.17-.16,32.13-.76,47.87-1.82l3.52,4.34-38.09,37.32-6.09,5.62.35.47,6.62-4.57c5.47-3.12,12.27-4.69,20.39-4.69,9.41,0,16.72,2.66,21.91,7.97,4.41,4.57,6.62,10.49,6.62,17.75,0,10.59-3.55,18.57-10.66,23.96-6.41,4.8-15.33,7.21-26.78,7.21-14.61,0-21.91-5.08-21.91-15.23,0-4.18,1.56-7.54,4.69-10.08,2.85-2.34,6.52-3.52,11.02-3.52,5.7,0,10.37,2.09,14,6.27,3.28,3.83,5.45,9.1,6.5,15.82,6.52-2.07,11.17-5.19,13.95-9.38,2.54-3.83,3.81-8.85,3.81-15.06,0-6.72-2.48-12.11-7.44-16.17-4.3-3.48-9.61-5.21-15.94-5.21-6.68,0-12.54,1.07-17.58,3.22-4.3,1.84-8.63,4.69-13.01,8.55-2.97,2.66-6.17,6.05-9.61,10.2l-4.45-4.22c17.81-18.87,35.86-37.54,54.14-56.02-11.95,1.02-26.52,1.78-43.71,2.29l-.12-5.04ZM1556.12,574.49c-.9-6.52-2.91-11.5-6.04-14.94-2.66-2.93-5.88-4.39-9.67-4.39s-6.45,1-8.44,2.99c-1.76,1.76-2.64,4.08-2.64,6.97,0,6.8,5.45,10.2,16.35,10.2,3.32,0,6.8-.27,10.43-.82Z"/>
</svg>